<?xml version="1.0" standalone="no"?><!DOCTYPE svg PUBLIC "-//W3C//DTD SVG 1.1//EN" "http://www.w3.org/Graphics/SVG/1.1/DTD/svg11.dtd"><svg t="1763991033915" class="icon" viewBox="0 0 1024 1024" version="1.1" xmlns="http://www.w3.org/2000/svg" p-id="9097" xmlns:xlink="http://www.w3.org/1999/xlink" width="200" height="200"><path d="M767.020769 459.467265c26.360549 169.119335-64.771193 244.160202-64.771194 244.160201-91.136903 102.531596-228.146736 77.172211-228.146735 77.172211-102.216797-16.906257-150.675207-75.056349-150.675207-75.056348-69.555106-59.187381-76.934822-167.008633-76.934822-167.008633-6.151483-79.65964 34.777553-149.97336 34.777553-149.97336 34.235686-63.341696 96.983908-100.54475 96.983908-100.54475 89.635157-50.739413 193.83364-26.417316 193.83364-26.417317l41.099338-40.170422c-73.766189-30.664523-172.809192-11.626922-172.809193-11.626922-118.008356 19.022119-186.490049 121.553716-186.490049 121.553716-86.420078 122.632289-54.816319 247.354638-54.816318 247.354637 31.624402 151.155147 154.901771 218.800816 154.901771 218.800817C514.144246 885.426494 649.027895 806.159063 649.027895 806.159063c135.920937-68.703601 167.524697-200.836628 167.524697-200.836629 28.455769-97.247101-7.379715-188.156936-7.379716-188.156936l-42.131465 42.301767h-0.020642z m-239.381449 4.629094l-0.056767 0.036124a28.311271 28.311271 0 0 0 7.364233 42.89524 28.135809 28.135809 0 0 0 33.440947-3.896283l0.056767 0.036125L682.303702 389.948283l72.961129 4.892286 121.631125-124.944256-105.070632-10.734131-10.734131-109.317838-126.482127 122.013013 5.836684 76.134922-110.298359 113.508278a26.561814 26.561814 0 0 0-2.523553 2.590641h0.015482z m-17.365554 492.144437c-245.718715 0-444.909099-199.185224-444.909099-444.903938s199.190384-444.909099 444.909099-444.909099c245.718715 0 444.903939 199.190384 444.903938 444.909099 0 245.718715-199.185224 444.903939-444.903938 444.903938z m28.099685-566.550545c-102.201315-9.51106-138.031639 58.13461-138.031639 58.13461-59.006758 100.415734 18.965352 169.139977 18.965352 169.139977 104.312017 70.809142 177.035757 6.337266 177.035756 6.337266 69.539625-49.681482 42.136626-140.797742 42.136626-140.797742l-50.574272 53.05654c-5.263853 19.022119-18.960192 35.949019-18.960191 35.949019-44.273131 52.829472-103.254086 13.732463-103.254086 13.732463-42.152108-25.380028-33.740265-82.069659-33.740265-82.069659 12.643568-54.573768 59.006758-59.579589 59.006758-59.579589l47.415961-53.902885z m0 0" p-id="9098"></path></svg>