<?xml version="1.0" standalone="no"?><!DOCTYPE svg PUBLIC "-//W3C//DTD SVG 1.1//EN" "http://www.w3.org/Graphics/SVG/1.1/DTD/svg11.dtd"><svg t="1763994779829" class="icon" viewBox="0 0 1024 1024" version="1.1" xmlns="http://www.w3.org/2000/svg" p-id="14295" xmlns:xlink="http://www.w3.org/1999/xlink" width="200" height="200"><path d="M163.025 732.719c5.965 1.988 12.925 2.983 20.879 2.983h47.723V574.636c0-15.908 1.988-27.838 5.965-35.792 7.954-13.919 15.411-23.862 22.37-29.827 6.96-5.965 18.393-10.937 34.301-14.913 9.942-3.977 32.81-6.96 68.602-8.948l289.321-2.983h14.913c15.908-5.965 28.336-11.931 37.284-17.896 8.948-5.965 15.908-13.919 20.879-23.862s7.954-21.376 8.948-34.301c0.994-12.925 1.491-48.22 1.491-105.885s-0.497-94.949-1.491-111.851-3.48-30.324-7.457-40.266c-3.977-15.908-13.919-30.821-29.827-44.74s-31.815-23.862-47.723-29.827c-13.919-3.977-28.833-6.462-44.74-7.457s-45.735-1.491-89.481-1.491c-43.746 0-72.579 0.497-86.498 1.491-13.919 0.994-29.827 3.48-47.723 7.457-25.85 5.965-44.74 15.908-56.671 29.827-7.954 7.954-13.422 16.405-16.405 25.353-2.983 8.948-5.468 21.376-7.457 37.284-1.988 9.942-2.983 27.341-2.983 52.197s0.994 39.272 2.983 43.249v2.983l214.754 2.983v23.862l-164.048 2.983c-109.365 0-168.025 0.994-175.979 2.983-19.885 3.977-37.781 14.913-53.688 32.81-5.965 5.965-10.937 11.931-14.913 17.896l-11.931 20.879c-7.954 17.896-14.416 35.792-19.387 53.688s-8.451 41.758-10.439 71.585c-1.988 39.769 0.994 74.567 8.948 104.394 17.896 75.558 47.723 120.299 89.48 134.218zM416.554 201.8c-5.965 3.977-12.925 6.462-20.879 7.457-7.954 0.994-13.919-0.497-17.896-4.474-15.908-5.965-24.359-17.399-25.353-34.301-0.994-16.902 6.462-29.33 22.37-37.284 9.942-5.965 19.387-7.457 28.336-4.474 8.948 2.983 16.405 8.451 22.37 16.405l5.965 11.931v11.931c0 7.954-0.994 14.416-2.983 19.387-1.988 4.971-5.965 9.445-11.93 13.422z m444.421 89.481c-5.965-1.988-12.925-2.983-20.879-2.983h-47.723V401.64c0 25.85-0.994 43.746-2.983 53.688-1.988 9.942-4.971 19.885-8.948 29.827-9.942 19.885-34.798 36.786-74.567 50.706-9.942 1.988-55.677 2.983-137.204 2.983l-208.788 2.983c-11.931 0-19.885 0.994-23.862 2.983h-5.965c-9.942 3.977-16.902 7.457-20.879 10.439-3.977 2.983-7.954 8.948-11.931 17.896s-6.96 19.388-8.948 31.318v122.29c0 55.677 0.497 91.966 1.491 108.868s3.48 30.324 7.457 40.266c3.977 15.908 13.919 30.821 29.827 44.74s31.815 23.862 47.723 29.827c13.919 3.977 28.833 6.462 44.74 7.457s45.735 1.491 89.481 1.491 72.579-0.497 86.498-1.491 29.827-3.48 47.723-7.457c25.85-5.965 44.74-15.908 56.671-29.827 7.954-7.954 13.422-16.405 16.405-25.353 2.983-8.948 5.468-21.376 7.457-37.284 1.988-9.942 2.983-27.341 2.983-52.197s-0.994-39.272-2.983-43.249v-2.983l-214.754-2.983v-23.862l164.048-2.983c109.365 0 168.025-0.994 175.979-2.983 19.885-3.977 37.781-14.913 53.688-32.81 5.965-5.965 10.937-11.931 14.913-17.896l11.931-20.879c7.954-17.896 14.416-35.792 19.387-53.688s8.451-41.758 10.439-71.585c1.988-39.769-0.994-74.567-8.948-104.394-17.895-75.557-47.722-120.298-89.479-134.217zM607.446 822.2c5.965-3.977 12.925-6.463 20.879-7.457 7.954-0.994 13.919 0.497 17.896 4.474 15.908 5.965 24.359 17.399 25.353 34.301 0.994 16.902-6.463 29.33-22.37 37.284-9.942 5.965-19.387 7.457-28.336 4.474-8.948-2.983-16.405-8.451-22.37-16.405l-5.965-11.931v-11.931c0-7.954 0.994-14.416 2.983-19.388s5.965-9.444 11.93-13.421z" p-id="14296"></path></svg>